<svg width="375" height="812" viewBox="0 0 375 812" fill="none" xmlns="http://www.w3.org/2000/svg">
<path d="M-3.54936e-05 0L0 812L375 812L375 -1.63918e-05L-3.54936e-05 0Z" fill="#F1FAFB"/>
<path fill-rule="evenodd" clip-rule="evenodd" d="M154.268 301.769C154.73 303.421 155.55 304.968 156.817 306.41C157.741 307.407 158.74 308.27 159.829 308.999L159.918 309.058L159.948 309.073L160.022 309.118C161.618 307.481 163.347 306.068 164.763 304.968C169.296 301.427 174.424 298.214 179.553 295.254C177.406 294.064 175.408 292.517 173.634 290.628L154.268 301.769Z" fill="#4BBD99"/>
<path fill-rule="evenodd" clip-rule="evenodd" d="M162.378 325.183C164.137 327.027 166.09 328.559 168.193 329.749C168.178 329.526 168.148 329.422 168.133 329.452C168.014 329.66 171.219 330.865 173.336 332.174C173.604 330.909 174.26 329.69 175.14 328.544L175.155 328.529L175.229 328.44L175.319 328.321L175.334 328.306L175.408 328.217L175.423 328.202L175.513 328.083C175.602 327.979 175.692 327.86 175.781 327.756L175.796 327.741L175.885 327.637L175.975 327.533L176.064 327.429L176.169 327.325L176.243 327.25L176.273 327.22L176.377 327.116L176.467 327.012L176.571 326.908L176.676 326.804L176.78 326.7L176.884 326.596L176.989 326.492L177.093 326.387L177.108 326.373L177.212 326.283C177.317 326.179 177.421 326.075 177.54 325.986L177.645 325.882L177.689 325.852L177.764 325.792C177.898 325.673 178.047 325.54 178.181 325.421L178.196 325.406L178.271 325.346L178.316 325.316L178.42 325.227L178.465 325.197L178.539 325.138L178.644 325.049L178.659 325.034L178.748 324.959L178.763 324.945L178.867 324.87L178.972 324.781L179.046 324.721L179.091 324.692L179.195 324.602L179.24 324.573L179.3 324.528L179.404 324.439L179.419 324.424L179.508 324.35L179.613 324.275H179.628L179.732 324.186L179.806 324.126L179.836 324.097L179.941 324.007L179.985 323.978L180.045 323.933L180.149 323.859L180.164 323.844L180.254 323.784L180.358 323.71L180.462 323.636L180.537 323.576L180.567 323.546L180.671 323.472L180.716 323.442L180.776 323.398L180.88 323.323L180.895 323.308L180.969 323.249L181.059 323.174L181.163 323.1L181.238 323.055L181.268 323.041L181.357 322.966L181.402 322.936L181.417 322.862L181.506 322.788L181.536 322.773L181.61 322.728L181.7 322.669L181.938 322.49L181.968 322.475L182.058 322.401L182.177 322.312L182.237 322.267L182.311 322.222L182.43 322.133L182.505 322.074L182.55 322.044L182.669 321.955L182.773 321.88L182.788 321.865L182.908 321.806L183.027 321.717L183.042 321.702L183.146 321.627L183.265 321.538L183.31 321.508L183.4 321.449L183.519 321.36L183.578 321.315L183.638 321.27L183.757 321.181L183.847 321.122L183.877 321.107L183.996 321.018L184.115 320.943L184.234 320.854L184.398 320.794L184.428 320.78L184.533 320.72L184.652 320.631L184.712 320.601L184.786 320.556L184.905 320.467L184.98 320.408L185.025 320.378L185.144 320.289L185.248 320.214L185.263 320.199L185.397 320.11L185.531 320.036H185.546L185.666 319.961L185.8 319.887L185.845 319.857L185.934 319.798L186.068 319.723L186.128 319.679L186.187 319.634L186.292 319.575L186.381 319.515L186.411 319.5L186.545 319.426L186.665 319.352L186.799 319.277L186.933 319.203L186.963 319.188L187.067 319.128L187.201 319.054L187.246 319.024L187.321 318.98L187.455 318.905L187.529 318.861L187.574 318.831L187.708 318.757L187.813 318.697L187.827 318.682L187.962 318.608L188.096 318.533H188.111L188.23 318.459L188.364 318.385L188.394 318.37L188.483 318.31L188.618 318.236L188.677 318.191L188.737 318.147L188.871 318.072L188.961 318.013L188.99 317.998L189.125 317.924L189.244 317.849H189.259L189.393 317.775L189.527 317.7L189.542 317.686L189.646 317.626L189.781 317.552C187.127 316.644 184.592 315.41 182.222 313.863L162.378 325.183Z" fill="#4BBD99"/>
<path fill-rule="evenodd" clip-rule="evenodd" d="M154.268 301.769C154.73 303.421 155.55 304.968 156.817 306.41C157.712 307.377 158.666 308.21 159.694 308.909C156.877 306.797 156.742 300.356 162.825 296.846L173.619 290.628L202.349 274.072C197.131 270.993 191.092 269.164 184.637 269C170.354 276.125 149.914 286.27 154.268 301.769Z" fill="#4BBD99"/>
<path fill-rule="evenodd" clip-rule="evenodd" d="M220.314 304.685C199.62 315.023 153.85 336.324 188.573 338.198L216.259 322.252C218.853 317.239 220.329 311.557 220.329 305.533C220.329 305.235 220.314 304.968 220.314 304.685Z" fill="#4BBD99"/>
<path fill-rule="evenodd" clip-rule="evenodd" d="M158.666 319.902C161.916 325.51 166.761 330.671 173.336 332.174C167.492 327.652 166.836 322.609 173.783 318.623L218.152 293.068C216.616 288.858 214.335 285.005 211.458 281.673C193.001 290.896 152.986 310.055 158.666 319.902Z" fill="#4BBD99"/>
<path fill-rule="evenodd" clip-rule="evenodd" d="M162.825 296.831L173.604 290.613L190.451 280.9C186.307 277.404 181.372 274.816 175.945 273.433C163.422 280.201 150.734 289.23 154.253 301.755C154.715 303.406 155.535 304.953 156.802 306.395C157.697 307.362 158.651 308.195 159.68 308.894C156.877 306.782 156.743 300.341 162.825 296.831Z" fill="#007C91"/>
<path fill-rule="evenodd" clip-rule="evenodd" d="M188.573 338.198C196.475 332.382 201.946 323.487 203.198 313.268C182.714 323.859 161.901 336.755 188.573 338.198Z" fill="#007C91"/>
<path fill-rule="evenodd" clip-rule="evenodd" d="M173.783 318.623L202.811 301.903C201.886 297.114 200.023 292.651 197.429 288.709C178.077 298.616 154.208 312.152 158.681 319.902C161.931 325.51 166.776 330.671 173.351 332.174C167.492 327.652 166.851 322.609 173.783 318.623Z" fill="#007C91"/>
<path d="M112.806 379H86V353.772H112.806V357H95.5268V364.661H111.226V367.874H95.5268V375.772H112.806V379Z" fill="#4BBD99"/>
<path d="M150.123 379H138.822L131.472 370.239L122.154 379H116.682L129.042 367.368L117.398 353.757H128.624L135.333 361.611L143.474 353.757H148.99L137.614 364.482L150.123 379Z" fill="#4BBD99"/>
<path d="M180.686 357H170.697V379H161.17V357H151.211V353.772H180.686V357V357Z" fill="#007C91"/>
<path d="M217.6 374.032C217.6 377.185 215.468 379 211.219 379H191.853C187.619 379 185.472 377.17 185.472 374.032V358.725C185.472 355.632 187.619 353.757 191.853 353.757H211.219C215.468 353.757 217.6 355.572 217.6 358.725V374.032ZM208.074 358.354C208.074 357.446 207.507 357 206.344 357H196.728C195.565 357 194.999 357.446 194.999 358.354V374.419C194.999 375.4 195.565 375.772 196.728 375.772H206.344C207.507 375.772 208.074 375.326 208.074 374.419V358.354Z" fill="#007C91"/>
<path d="M255.141 374.344C255.141 377.022 253.083 379 248.864 379H223.638V353.772H248.864C252.696 353.772 255.141 355.423 255.141 358.502V362.414C255.022 365.241 253.516 365.836 247.94 366.074V366.193C253.561 366.475 254.992 366.936 255.141 369.911V374.344V374.344ZM245.927 358.651C245.927 357.491 245.48 357 244.272 357H233.165V364.661H244.272C245.465 364.661 245.927 364.125 245.927 363.039V358.651ZM245.927 369.525C245.927 368.364 245.48 367.874 244.272 367.874H233.165V375.772H244.272C245.465 375.772 245.927 375.237 245.927 374.151V369.525Z" fill="#007C91"/>
<path d="M288 379H261.194V353.772H288V357H270.721V364.661H286.42V367.874H270.721V375.772H288V379Z" fill="#007C91"/>
<path d="M209.723 610.857L290.032 630.931C290.032 630.931 300.413 622.897 293.842 602.916C282.717 603.802 209.723 610.857 209.723 610.857Z" fill="url(#paint0_linear_1216_4901)"/>
<path d="M197.669 562.695L271.958 582.868C271.958 582.868 275.529 568.064 270.285 555.884C260.468 556.803 197.669 562.695 197.669 562.695Z" fill="url(#paint1_linear_1216_4901)"/>
<path d="M270.484 534.217L270.298 555.878L186.259 563.812L186.445 542.144L270.484 534.217Z" fill="#CDDDEC"/>
<path d="M148.272 577.069C148.651 576.996 149.029 576.924 149.414 576.851C151.02 576.553 152.633 576.269 154.253 575.998C154.605 575.938 154.95 575.886 155.302 575.826C156.622 575.608 157.943 575.396 159.258 575.191C159.775 575.112 160.293 575.033 160.811 574.953C161.627 574.828 162.444 574.709 163.253 574.596C163.831 574.51 164.408 574.431 164.979 574.352C165.816 574.233 166.645 574.12 167.482 574.008C168.026 573.935 168.57 573.862 169.108 573.79C170.004 573.671 170.9 573.558 171.789 573.452C172.247 573.393 172.719 573.333 173.177 573.28C174.352 573.135 175.513 573.003 176.668 572.87C176.834 572.851 177 572.831 177.166 572.811C178.487 572.659 179.788 572.52 181.069 572.381C181.467 572.341 181.852 572.302 182.244 572.262C183.12 572.17 183.996 572.077 184.852 571.998C185.337 571.951 185.808 571.905 186.293 571.859C187.036 571.786 187.779 571.713 188.503 571.647C189.007 571.601 189.505 571.555 189.996 571.508C190.673 571.449 191.35 571.389 192.008 571.33C192.638 571.277 193.262 571.224 193.873 571.171C194.165 571.145 194.457 571.125 194.742 571.098C195.678 571.019 196.594 570.946 197.484 570.88L197.67 549.219C196.78 549.285 195.864 549.358 194.928 549.437C194.643 549.464 194.344 549.484 194.052 549.51C193.634 549.543 193.222 549.576 192.791 549.616C192.598 549.629 192.399 549.649 192.207 549.669C191.536 549.728 190.853 549.788 190.169 549.847C189.678 549.894 189.193 549.933 188.689 549.98C187.965 550.046 187.229 550.118 186.485 550.191C186.001 550.237 185.529 550.284 185.038 550.33C184.182 550.416 183.306 550.509 182.43 550.595C182.038 550.634 181.653 550.674 181.255 550.714C179.974 550.852 178.673 550.991 177.352 551.143C177.186 551.163 177.02 551.183 176.854 551.203C175.699 551.335 174.537 551.474 173.363 551.613C172.905 551.666 172.44 551.732 171.975 551.785C171.086 551.897 170.196 552.01 169.294 552.122C168.756 552.195 168.212 552.267 167.667 552.34C166.838 552.453 166.008 552.565 165.165 552.684C164.588 552.763 164.01 552.849 163.426 552.935C162.616 553.054 161.813 553.167 161.003 553.292C160.724 553.332 160.452 553.372 160.174 553.411C159.928 553.451 159.682 553.491 159.43 553.53C158.109 553.735 156.795 553.947 155.474 554.165C155.129 554.225 154.784 554.277 154.432 554.337C152.812 554.608 151.2 554.892 149.593 555.19C149.208 555.263 148.823 555.335 148.438 555.408C147.17 555.646 145.909 555.891 144.655 556.142C144.203 556.235 143.752 556.321 143.301 556.42C141.708 556.75 140.121 557.088 138.568 557.445L138.382 579.106C139.935 578.749 141.522 578.411 143.115 578.081C143.566 577.988 144.018 577.896 144.469 577.803C145.73 577.552 146.998 577.307 148.272 577.069Z" fill="url(#paint2_linear_1216_4901)"/>
<path d="M230.28 522.553C246.224 524.973 259.871 529.059 270.484 534.21L186.445 542.144C189.452 544.802 193.222 547.17 197.669 549.213C182.064 550.416 158.547 552.889 138.575 557.438C138.369 557.339 134.493 555.441 132.455 553.292C129.388 550.059 129.853 548.208 129.886 547.48C130.835 529.178 189.386 525.31 230.28 522.553Z" fill="url(#paint3_linear_1216_4901)"/>
<path d="M194.576 591.781L194.404 612.305C230.068 608.939 290.656 603.22 293.842 602.916L294.015 582.392C290.829 582.696 230.24 588.415 194.576 591.781Z" fill="url(#paint4_linear_1216_4901)"/>
<path d="M160.167 628.286L160.34 607.762C159.702 607.597 159.078 607.425 158.468 607.246C158.215 607.174 157.983 607.101 157.738 607.022C157.386 606.916 157.027 606.81 156.689 606.704C155.999 606.486 155.341 606.255 154.698 606.03C154.505 605.957 154.313 605.891 154.12 605.818C153.662 605.646 153.211 605.474 152.766 605.302C152.547 605.217 152.321 605.131 152.109 605.038C151.93 604.965 151.744 604.886 151.571 604.813C151.286 604.694 151.007 604.569 150.735 604.45C150.562 604.37 150.396 604.297 150.23 604.218C149.945 604.086 149.673 603.954 149.401 603.821C149.255 603.749 149.109 603.683 148.969 603.61C148.637 603.444 148.312 603.279 147.994 603.107C147.921 603.068 147.848 603.035 147.781 602.995C147.396 602.79 147.024 602.578 146.659 602.373C146.553 602.314 146.454 602.254 146.347 602.188C146.095 602.036 145.836 601.891 145.597 601.739C145.471 601.659 145.345 601.58 145.219 601.501C145.007 601.368 144.794 601.229 144.588 601.097C144.462 601.018 144.336 600.932 144.217 600.853C144.018 600.72 143.825 600.588 143.639 600.456C143.526 600.377 143.407 600.291 143.294 600.211C143.102 600.072 142.909 599.934 142.723 599.788C142.63 599.715 142.531 599.643 142.438 599.576C142.206 599.398 141.98 599.219 141.761 599.047C141.721 599.014 141.675 598.981 141.635 598.948C141.376 598.737 141.13 598.532 140.891 598.327C140.818 598.261 140.745 598.195 140.672 598.135C140.513 597.99 140.354 597.851 140.201 597.712C140.115 597.633 140.035 597.553 139.949 597.48C139.816 597.355 139.677 597.223 139.55 597.097C139.471 597.018 139.391 596.938 139.312 596.859C139.185 596.733 139.066 596.608 138.946 596.489C138.873 596.416 138.8 596.337 138.734 596.264C138.615 596.132 138.495 596.006 138.382 595.88C138.323 595.814 138.263 595.748 138.203 595.682C138.057 595.517 137.911 595.351 137.778 595.186C137.758 595.166 137.738 595.14 137.725 595.12C137.572 594.935 137.426 594.756 137.287 594.578C137.241 594.518 137.201 594.465 137.154 594.406C137.061 594.287 136.968 594.168 136.882 594.055C136.836 593.989 136.783 593.923 136.736 593.857C136.663 593.751 136.583 593.652 136.517 593.546C136.471 593.48 136.431 593.421 136.384 593.355C136.318 593.255 136.252 593.156 136.185 593.064C136.145 593.004 136.106 592.945 136.072 592.892C136.006 592.793 135.946 592.693 135.88 592.594C135.853 592.548 135.82 592.502 135.794 592.455C135.714 592.323 135.634 592.197 135.568 592.078C135.561 592.072 135.555 592.059 135.555 592.052C135.482 591.92 135.409 591.801 135.342 591.682C135.322 591.642 135.296 591.602 135.276 591.563C135.236 591.49 135.196 591.411 135.156 591.344C135.136 591.298 135.11 591.259 135.09 591.219C135.057 591.159 135.024 591.093 134.997 591.04C134.977 591.001 134.957 590.961 134.937 590.928C134.911 590.875 134.884 590.822 134.858 590.769C134.838 590.73 134.818 590.69 134.805 590.657C134.778 590.597 134.745 590.544 134.725 590.492C134.692 590.432 134.665 590.373 134.639 590.326C134.546 590.154 134.479 589.982 134.44 589.81C134.393 589.639 134.373 589.473 134.373 589.301L134.201 609.825C134.201 610.162 134.287 610.5 134.466 610.843C134.493 610.89 134.519 610.943 134.552 611.009C134.579 611.062 134.605 611.114 134.632 611.174C134.652 611.207 134.665 611.247 134.685 611.286C134.712 611.339 134.738 611.386 134.765 611.445C134.785 611.485 134.805 611.518 134.824 611.557C134.851 611.617 134.884 611.676 134.917 611.736C134.937 611.776 134.957 611.815 134.984 611.862C135.024 611.934 135.063 612.007 135.103 612.08C135.123 612.119 135.143 612.159 135.17 612.199C135.236 612.318 135.309 612.437 135.382 612.569C135.389 612.576 135.395 612.589 135.395 612.596C135.468 612.715 135.541 612.84 135.621 612.972C135.648 613.019 135.681 613.065 135.707 613.111C135.767 613.21 135.833 613.31 135.9 613.409C135.94 613.468 135.973 613.521 136.013 613.581C136.079 613.68 136.145 613.772 136.212 613.872C136.258 613.938 136.298 613.997 136.345 614.063C136.418 614.163 136.491 614.268 136.564 614.374C136.61 614.44 136.656 614.506 136.71 614.573C136.796 614.685 136.889 614.804 136.982 614.923C137.028 614.982 137.068 615.035 137.114 615.095C137.254 615.273 137.4 615.452 137.553 615.637C137.572 615.657 137.592 615.683 137.606 615.703C137.745 615.868 137.884 616.027 138.03 616.199C138.09 616.265 138.15 616.331 138.21 616.391C138.323 616.516 138.442 616.649 138.561 616.774C138.628 616.847 138.701 616.926 138.774 616.999C138.893 617.125 139.013 617.244 139.139 617.369C139.219 617.449 139.298 617.528 139.378 617.607C139.504 617.733 139.637 617.859 139.776 617.991C139.856 618.07 139.942 618.15 140.028 618.222C140.181 618.361 140.34 618.507 140.5 618.646C140.573 618.712 140.646 618.778 140.719 618.837C140.958 619.042 141.203 619.254 141.462 619.459C141.502 619.492 141.548 619.525 141.588 619.558C141.807 619.737 142.033 619.908 142.265 620.087C142.358 620.16 142.458 620.232 142.551 620.299C142.737 620.437 142.929 620.576 143.122 620.722C143.234 620.801 143.354 620.887 143.467 620.966C143.659 621.099 143.852 621.231 144.044 621.363C144.164 621.442 144.29 621.528 144.416 621.608C144.622 621.74 144.834 621.879 145.046 622.011C145.173 622.09 145.292 622.17 145.425 622.249C145.67 622.401 145.923 622.547 146.175 622.699C146.281 622.758 146.381 622.818 146.487 622.884C146.852 623.095 147.224 623.3 147.609 623.505C147.682 623.545 147.755 623.578 147.821 623.618C148.14 623.783 148.465 623.955 148.797 624.12C148.936 624.193 149.089 624.259 149.228 624.332C149.5 624.464 149.779 624.596 150.058 624.729C150.224 624.808 150.396 624.881 150.562 624.96C150.834 625.086 151.12 625.205 151.399 625.324C151.578 625.403 151.757 625.476 151.936 625.549C152.042 625.595 152.149 625.641 152.262 625.687C152.368 625.734 152.487 625.773 152.593 625.813C153.031 625.992 153.483 626.163 153.947 626.329C154.14 626.401 154.326 626.468 154.518 626.54C155.162 626.772 155.826 626.997 156.516 627.221C156.775 627.301 157.041 627.38 157.306 627.459C157.638 627.559 157.957 627.664 158.295 627.757C158.906 627.949 159.53 628.114 160.167 628.286Z" fill="url(#paint5_linear_1216_4901)"/>
<path d="M286.441 568.493C290.815 572.857 293.45 577.565 294.015 582.392C290.828 582.696 230.24 588.415 194.576 591.781C194.981 591.992 205.635 596.747 209.717 598.062C207.958 598.181 174.517 600.476 162.377 606.493C161.581 606.889 160.897 607.313 160.333 607.762C139.843 602.439 135.429 591.873 134.612 590.333C128.293 578.345 236.354 571.872 286.441 568.493Z" fill="#4BBD99"/>
<path d="M164.521 626.011C164.647 625.965 164.773 625.912 164.9 625.866C165.251 625.734 165.616 625.601 165.988 625.476C166.054 625.456 166.114 625.429 166.181 625.41C166.619 625.258 167.077 625.112 167.541 624.973C167.667 624.934 167.8 624.894 167.933 624.854C168.285 624.748 168.65 624.643 169.015 624.537C169.161 624.497 169.314 624.451 169.466 624.411C169.898 624.292 170.342 624.173 170.787 624.061C170.853 624.048 170.913 624.028 170.973 624.014C171.484 623.882 172.008 623.757 172.539 623.631C172.692 623.598 172.845 623.558 172.997 623.525C173.396 623.433 173.801 623.34 174.205 623.254C174.371 623.221 174.531 623.181 174.697 623.148C175.194 623.043 175.692 622.937 176.197 622.831C176.25 622.818 176.303 622.811 176.363 622.798C176.92 622.685 177.484 622.573 178.055 622.467C178.221 622.434 178.387 622.408 178.553 622.375C178.978 622.295 179.403 622.216 179.834 622.143C180.007 622.11 180.179 622.084 180.352 622.051C180.89 621.958 181.434 621.866 181.971 621.773C182.011 621.766 182.044 621.76 182.084 621.753C182.662 621.654 183.246 621.561 183.83 621.469C184.003 621.442 184.175 621.416 184.348 621.39C184.773 621.323 185.204 621.257 185.629 621.198C185.808 621.171 185.987 621.145 186.166 621.118C186.724 621.039 187.282 620.953 187.833 620.88C187.852 620.88 187.872 620.874 187.892 620.874C188.47 620.794 189.041 620.715 189.611 620.642C189.784 620.623 189.95 620.596 190.122 620.576C190.541 620.523 190.952 620.47 191.364 620.418C191.536 620.398 191.709 620.371 191.881 620.351C192.406 620.285 192.924 620.219 193.435 620.16C193.461 620.153 193.494 620.153 193.521 620.146C194.065 620.08 194.61 620.021 195.141 619.955C195.287 619.935 195.439 619.922 195.585 619.902C195.984 619.856 196.382 619.809 196.773 619.77C196.913 619.756 197.052 619.737 197.192 619.723C197.669 619.67 198.141 619.624 198.599 619.571C198.632 619.565 198.665 619.565 198.692 619.558C199.176 619.505 199.641 619.459 200.105 619.413C200.258 619.399 200.404 619.386 200.55 619.366C200.869 619.333 201.187 619.307 201.493 619.274C201.639 619.26 201.778 619.247 201.918 619.234C202.316 619.194 202.707 619.161 203.079 619.128C203.099 619.128 203.119 619.122 203.139 619.122C203.544 619.082 203.929 619.049 204.307 619.016C204.42 619.009 204.526 618.996 204.632 618.989C204.891 618.97 205.137 618.943 205.382 618.923C205.508 618.91 205.635 618.903 205.754 618.89C205.98 618.87 206.192 618.857 206.398 618.837C206.497 618.831 206.604 618.817 206.697 618.811C206.989 618.784 207.261 618.765 207.513 618.745C207.546 618.745 207.566 618.738 207.599 618.738C207.812 618.718 208.011 618.705 208.197 618.692C208.29 618.685 208.376 618.679 208.462 618.672C208.568 618.665 208.668 618.659 208.761 618.652C208.834 618.646 208.907 618.639 208.973 618.639C209.08 618.632 209.186 618.626 209.265 618.619C209.285 618.619 209.305 618.619 209.318 618.612C209.425 618.606 209.504 618.599 209.557 618.599L209.73 598.076C209.677 598.082 209.591 598.082 209.491 598.089C209.471 598.089 209.451 598.089 209.438 598.095C209.352 598.102 209.259 598.109 209.146 598.115C209.08 598.122 209.013 598.122 208.934 598.128C208.841 598.135 208.741 598.142 208.635 598.148C208.549 598.155 208.462 598.161 208.369 598.168C208.223 598.181 208.057 598.195 207.885 598.208C207.812 598.214 207.745 598.221 207.666 598.228C207.42 598.247 207.155 598.267 206.869 598.294C206.77 598.3 206.67 598.307 206.571 598.32C206.365 598.34 206.152 598.353 205.933 598.373C205.801 598.386 205.668 598.393 205.528 598.406C205.422 598.413 205.329 598.426 205.223 598.433C205.104 598.446 204.977 598.452 204.851 598.466C204.719 598.479 204.592 598.485 204.46 598.499C204.095 598.532 203.723 598.565 203.338 598.598C203.285 598.604 203.232 598.604 203.185 598.611C202.827 598.644 202.455 598.677 202.077 598.717C201.951 598.73 201.831 598.743 201.705 598.75C201.373 598.783 201.035 598.816 200.69 598.849C200.557 598.862 200.431 598.876 200.298 598.889C199.833 598.935 199.355 598.981 198.871 599.034C198.838 599.041 198.804 599.041 198.771 599.047C198.32 599.094 197.855 599.147 197.391 599.193C197.238 599.213 197.079 599.226 196.926 599.246C196.548 599.286 196.169 599.332 195.778 599.371C195.625 599.391 195.472 599.405 195.32 599.424C194.789 599.484 194.251 599.55 193.7 599.616C193.674 599.616 193.647 599.623 193.621 599.629C193.103 599.689 192.578 599.755 192.047 599.821C191.881 599.841 191.716 599.861 191.55 599.887C191.138 599.94 190.72 599.993 190.302 600.046C190.129 600.066 189.963 600.092 189.791 600.112C189.226 600.185 188.656 600.264 188.078 600.343C188.038 600.35 187.998 600.357 187.965 600.357C187.428 600.429 186.89 600.509 186.346 600.588C186.173 600.615 185.994 600.641 185.821 600.667C185.609 600.701 185.397 600.727 185.184 600.76C184.965 600.793 184.746 600.826 184.527 600.859C184.354 600.886 184.188 600.912 184.016 600.939C183.432 601.031 182.848 601.124 182.264 601.223C182.237 601.229 182.217 601.229 182.191 601.236C181.64 601.329 181.082 601.421 180.531 601.52C180.359 601.553 180.186 601.58 180.007 601.613C179.582 601.692 179.157 601.765 178.732 601.844C178.566 601.877 178.4 601.904 178.235 601.937C177.664 602.043 177.099 602.155 176.542 602.268C176.489 602.281 176.436 602.287 176.376 602.301C175.872 602.406 175.374 602.506 174.883 602.618C174.717 602.651 174.551 602.691 174.378 602.73C173.973 602.823 173.575 602.909 173.177 603.001C173.024 603.035 172.871 603.074 172.719 603.107C172.188 603.233 171.67 603.359 171.152 603.491C171.092 603.504 171.026 603.524 170.966 603.537C170.515 603.656 170.07 603.768 169.639 603.894C169.493 603.934 169.34 603.98 169.194 604.02C168.829 604.126 168.464 604.231 168.112 604.337C167.979 604.377 167.853 604.416 167.721 604.456C167.256 604.602 166.805 604.747 166.36 604.893C166.293 604.912 166.234 604.939 166.167 604.959C165.796 605.084 165.431 605.217 165.079 605.349C164.953 605.395 164.827 605.448 164.7 605.494C164.574 605.541 164.442 605.593 164.322 605.64C164.156 605.706 164.003 605.772 163.844 605.845C163.725 605.898 163.599 605.944 163.486 605.997C163.107 606.162 162.736 606.327 162.391 606.499C162.238 606.572 162.092 606.651 161.952 606.724C161.833 606.79 161.733 606.863 161.614 606.929C161.441 607.028 161.269 607.127 161.116 607.233C161.056 607.273 160.983 607.306 160.93 607.346C160.724 607.484 160.532 607.623 160.353 607.769L160.18 628.292C160.412 628.107 160.671 627.935 160.944 627.757C161.103 627.651 161.275 627.552 161.448 627.453C161.7 627.307 161.946 627.162 162.225 627.023C162.57 626.851 162.935 626.686 163.32 626.52C163.439 626.468 163.559 626.421 163.678 626.368C163.944 626.243 164.229 626.124 164.521 626.011Z" fill="url(#paint6_linear_1216_4901)"/>
<path d="M290.205 618.632C289.952 618.989 289.693 619.34 289.421 619.69C289.083 620.127 288.731 620.563 288.359 620.993C288.273 621.092 288.187 621.185 288.1 621.284C287.808 621.614 287.503 621.945 287.191 622.276C287.058 622.414 286.926 622.547 286.793 622.679C286.468 623.009 286.129 623.333 285.784 623.657C285.658 623.776 285.538 623.895 285.406 624.008C284.941 624.431 284.463 624.854 283.965 625.271C283.905 625.317 283.846 625.363 283.786 625.416C283.282 625.833 282.764 626.236 282.233 626.639C282.087 626.752 281.941 626.864 281.788 626.97C281.197 627.406 280.593 627.843 279.963 628.266C279.923 628.292 279.876 628.319 279.837 628.345C279.073 628.861 278.283 629.357 277.474 629.853C277.381 629.906 277.294 629.965 277.201 630.018C276.398 630.501 275.562 630.977 274.712 631.44C274.56 631.519 274.414 631.605 274.254 631.684C273.445 632.114 272.622 632.544 271.772 632.961C271.619 633.033 271.467 633.106 271.314 633.179C270.424 633.609 269.515 634.032 268.586 634.448L268.413 646.747C269.343 646.337 270.245 645.914 271.135 645.484C271.287 645.411 271.44 645.338 271.593 645.259C272.442 644.842 273.265 644.419 274.075 643.983C274.142 643.943 274.215 643.91 274.288 643.877C274.374 643.831 274.447 643.784 274.527 643.738C275.376 643.275 276.212 642.799 277.022 642.317C277.115 642.264 277.201 642.204 277.294 642.145C278.104 641.649 278.901 641.146 279.664 640.637C279.691 640.617 279.724 640.597 279.75 640.578C279.764 640.571 279.77 640.564 279.784 640.558C280.414 640.135 281.018 639.698 281.609 639.262C281.755 639.149 281.901 639.044 282.047 638.931C282.578 638.528 283.102 638.118 283.607 637.701C283.653 637.662 283.7 637.629 283.746 637.596C283.759 637.582 283.773 637.576 283.786 637.563C284.284 637.146 284.762 636.723 285.226 636.3C285.352 636.181 285.479 636.062 285.605 635.943C285.95 635.619 286.288 635.295 286.614 634.964C286.693 634.885 286.773 634.812 286.853 634.733C286.906 634.673 286.959 634.614 287.012 634.561C287.324 634.23 287.629 633.899 287.921 633.569C288.008 633.47 288.1 633.377 288.18 633.278C288.552 632.848 288.904 632.418 289.242 631.975C289.262 631.949 289.282 631.929 289.302 631.903C289.554 631.579 289.793 631.248 290.025 630.917C290.224 630.633 290.39 630.349 290.57 630.064L290.742 617.766C290.57 618.064 290.404 618.348 290.205 618.632Z" fill="#CDDDEC"/>
<path d="M290.749 617.779C290.563 618.064 290.397 618.355 290.205 618.632C285.864 624.821 278.31 630.17 268.592 634.461L191.888 641.702C111.447 628.332 234.575 621.555 290.749 617.779Z" fill="url(#paint7_linear_1216_4901)"/>
<path d="M191.888 641.702L191.709 654L268.42 646.76L268.593 634.461L191.888 641.702Z" fill="url(#paint8_linear_1216_4901)"/>
<path d="M190.255 641.424C189.479 641.292 188.729 641.16 187.998 641.027C187.826 640.994 187.653 640.968 187.487 640.935C186.751 640.802 186.034 640.67 185.337 640.538C185.324 640.538 185.304 640.531 185.29 640.531C184.607 640.399 183.95 640.273 183.306 640.148C183.16 640.121 183.007 640.088 182.861 640.062C182.224 639.936 181.6 639.804 180.996 639.678C180.843 639.645 180.697 639.612 180.544 639.579C180.239 639.513 179.94 639.447 179.648 639.387C179.469 639.348 179.297 639.308 179.117 639.268C178.858 639.209 178.6 639.149 178.347 639.097C178.168 639.057 177.996 639.017 177.816 638.971C177.577 638.911 177.338 638.859 177.106 638.799C176.94 638.759 176.774 638.72 176.608 638.68C176.376 638.62 176.15 638.568 175.931 638.508C175.765 638.468 175.599 638.422 175.44 638.382C175.268 638.336 175.095 638.29 174.929 638.25C174.763 638.204 174.597 638.164 174.431 638.118C174.265 638.072 174.099 638.025 173.933 637.979C173.781 637.933 173.621 637.893 173.475 637.847C173.316 637.801 173.163 637.754 173.011 637.715C172.865 637.668 172.719 637.629 172.573 637.582C172.427 637.536 172.281 637.496 172.141 637.45C172.028 637.417 171.909 637.377 171.796 637.344C171.371 637.206 170.966 637.073 170.581 636.934C170.515 636.908 170.449 636.888 170.382 636.862C170.004 636.723 169.645 636.591 169.314 636.452C169.26 636.432 169.214 636.412 169.168 636.392C168.909 636.286 168.656 636.174 168.424 636.068C168.384 636.048 168.338 636.029 168.298 636.015C168.046 635.896 167.82 635.784 167.601 635.665C167.555 635.638 167.508 635.612 167.462 635.586C167.249 635.467 167.044 635.354 166.864 635.235C166.858 635.235 166.858 635.229 166.851 635.229C166.678 635.116 166.519 635.004 166.38 634.885C166.347 634.858 166.32 634.838 166.287 634.812C166.154 634.7 166.028 634.587 165.928 634.475C165.908 634.455 165.895 634.435 165.882 634.415C165.789 634.316 165.716 634.21 165.65 634.111C165.636 634.091 165.623 634.078 165.616 634.058C165.55 633.946 165.504 633.84 165.464 633.734C165.457 633.708 165.45 633.688 165.444 633.661C165.417 633.549 165.397 633.443 165.397 633.331L165.225 645.629C165.225 645.742 165.245 645.847 165.271 645.96C165.278 645.986 165.285 646.006 165.291 646.033C165.324 646.138 165.377 646.251 165.444 646.357C165.457 646.376 165.47 646.39 165.484 646.409C165.55 646.509 165.63 646.608 165.716 646.714C165.736 646.733 165.749 646.753 165.762 646.773C165.869 646.886 165.988 646.998 166.128 647.11C166.154 647.137 166.187 647.157 166.22 647.183C166.366 647.295 166.519 647.408 166.692 647.527C166.698 647.527 166.698 647.534 166.705 647.534C166.884 647.653 167.083 647.765 167.296 647.884C167.342 647.91 167.389 647.937 167.435 647.963C167.654 648.076 167.88 648.195 168.132 648.314C168.172 648.334 168.212 648.353 168.252 648.367C168.484 648.472 168.736 648.585 169.002 648.691C169.035 648.704 169.061 648.717 169.101 648.73C169.114 648.737 169.134 648.743 169.148 648.75C169.48 648.882 169.845 649.021 170.223 649.16C170.289 649.18 170.349 649.206 170.415 649.226C170.8 649.358 171.205 649.497 171.63 649.636C171.663 649.649 171.69 649.656 171.723 649.669C171.803 649.696 171.889 649.722 171.969 649.749C172.108 649.795 172.254 649.834 172.4 649.881C172.546 649.927 172.692 649.967 172.838 650.013C172.991 650.059 173.143 650.106 173.296 650.145C173.449 650.192 173.601 650.231 173.761 650.277C173.92 650.324 174.086 650.37 174.252 650.416C174.411 650.463 174.584 650.502 174.75 650.549C174.916 650.595 175.088 650.641 175.261 650.681C175.334 650.701 175.407 650.72 175.48 650.74C175.566 650.76 175.666 650.787 175.752 650.806C175.971 650.859 176.197 650.919 176.429 650.978C176.595 651.018 176.754 651.058 176.927 651.097C177.166 651.157 177.405 651.21 177.65 651.269C177.816 651.309 177.989 651.349 178.162 651.388C178.42 651.448 178.686 651.507 178.958 651.567C179.124 651.607 179.29 651.64 179.462 651.679C179.761 651.745 180.067 651.811 180.378 651.878C180.505 651.904 180.631 651.93 180.757 651.957C180.777 651.964 180.797 651.964 180.817 651.97C181.414 652.096 182.038 652.228 182.682 652.354C182.828 652.38 182.974 652.413 183.126 652.44C183.77 652.565 184.427 652.697 185.111 652.823C185.124 652.823 185.144 652.83 185.158 652.83C185.855 652.962 186.571 653.094 187.308 653.226C187.481 653.26 187.647 653.286 187.819 653.319C188.556 653.451 189.306 653.584 190.076 653.716C190.103 653.722 190.123 653.722 190.142 653.729C190.654 653.815 191.178 653.907 191.709 653.993L191.881 641.695C191.331 641.609 190.786 641.517 190.255 641.424Z" fill="#CDDDEC"/>
<path d="M157.207 523.803C156.384 523.875 155.594 523.955 154.824 524.047C154.578 524.074 154.339 524.107 154.1 524.14C153.755 524.186 153.397 524.226 153.058 524.272C152.852 524.299 152.66 524.332 152.454 524.365C152.315 524.384 152.175 524.404 152.036 524.431C151.372 524.537 150.722 524.649 150.104 524.768C149.998 524.788 149.899 524.808 149.792 524.834C149.208 524.947 148.644 525.072 148.1 525.198C148.033 525.211 147.967 525.231 147.901 525.244C147.33 525.383 146.786 525.522 146.254 525.674C146.142 525.707 146.035 525.733 145.929 525.766C145.412 525.918 144.914 526.071 144.442 526.229C144.376 526.249 144.316 526.276 144.257 526.295C144.031 526.375 143.805 526.447 143.593 526.527C143.447 526.58 143.314 526.639 143.168 526.699C142.989 526.765 142.816 526.838 142.644 526.904C142.358 527.023 142.086 527.142 141.821 527.261C141.675 527.327 141.529 527.393 141.389 527.459C141.343 527.486 141.283 527.505 141.236 527.525C140.931 527.677 140.652 527.829 140.38 527.981C140.32 528.015 140.261 528.054 140.201 528.087C140.068 528.167 139.935 528.239 139.809 528.319C139.723 528.372 139.657 528.424 139.577 528.477C139.391 528.596 139.212 528.722 139.039 528.848C138.966 528.901 138.873 528.953 138.807 529.006C138.741 529.059 138.688 529.112 138.621 529.165C138.495 529.264 138.376 529.37 138.263 529.469C138.196 529.529 138.123 529.582 138.057 529.641C137.991 529.701 137.944 529.76 137.884 529.826C137.792 529.919 137.705 530.005 137.626 530.097C137.579 530.15 137.526 530.196 137.486 530.249C137.42 530.329 137.373 530.401 137.314 530.481C137.254 530.56 137.188 530.646 137.134 530.725C137.114 530.758 137.081 530.798 137.061 530.831C136.995 530.937 136.949 531.043 136.889 531.155C136.856 531.221 136.816 531.287 136.783 531.347C136.776 531.36 136.763 531.38 136.756 531.4C136.676 531.585 136.61 531.77 136.564 531.955V531.962C136.557 531.982 136.557 532.002 136.557 532.021C136.524 532.187 136.491 532.352 136.484 532.511C136.484 532.544 136.484 532.577 136.484 532.61L136.285 554.271C136.285 554.079 136.318 553.881 136.358 553.676C136.364 553.656 136.364 553.636 136.364 553.616C136.411 553.411 136.491 553.213 136.583 553.001C136.61 552.935 136.656 552.869 136.69 552.803C136.763 552.664 136.842 552.519 136.935 552.38C136.988 552.3 137.055 552.215 137.114 552.135C137.207 552.01 137.314 551.884 137.426 551.752C137.506 551.659 137.592 551.567 137.685 551.481C137.805 551.362 137.931 551.243 138.057 551.124C138.17 551.018 138.296 550.919 138.422 550.813C138.555 550.707 138.694 550.601 138.84 550.495C139.013 550.37 139.192 550.251 139.378 550.125C139.584 549.993 139.783 549.861 140.008 549.735C140.068 549.702 140.128 549.662 140.188 549.629C140.506 549.451 140.845 549.279 141.197 549.107C141.336 549.041 141.482 548.975 141.628 548.909C141.894 548.789 142.166 548.664 142.451 548.545C142.624 548.472 142.796 548.406 142.976 548.34C143.327 548.201 143.686 548.069 144.064 547.937C144.13 547.917 144.19 547.89 144.257 547.87C144.728 547.712 145.226 547.56 145.743 547.408C145.85 547.375 145.962 547.348 146.069 547.315C146.6 547.17 147.144 547.024 147.715 546.885C147.781 546.872 147.848 546.852 147.914 546.839C148.458 546.713 149.022 546.594 149.606 546.475C149.713 546.455 149.812 546.436 149.918 546.409C150.542 546.29 151.186 546.178 151.85 546.072C151.989 546.052 152.129 546.032 152.268 546.006C152.799 545.926 153.35 545.854 153.914 545.781C154.153 545.748 154.392 545.715 154.638 545.688C155.408 545.596 156.198 545.517 157.021 545.444L244.876 536.61L245.075 516.153L157.207 523.803Z" fill="url(#paint9_linear_1216_4901)"/>
<path d="M138.774 535.784C136.577 534.66 134.665 533.423 133.046 532.068C131.174 530.408 130.225 528.748 130.025 527.115C129.999 526.884 129.986 526.646 129.986 526.414L129.787 548.075C129.787 548.327 129.8 548.571 129.833 548.823L129.654 569.869C129.647 570.841 129.939 572.5 132.269 574.953C134.307 577.096 138.183 578.993 138.389 579.099L138.575 557.438L138.774 535.784Z" fill="url(#paint10_linear_1216_4901)"/>
<path d="M212.027 503.034C225.541 506.42 236.745 510.942 245.069 516.172L157.207 523.803C137.871 525.482 132.913 532.511 138.774 535.784C136.577 534.66 134.665 533.423 133.046 532.068C130.809 530.084 129.886 528.107 129.999 526.163C130.835 511.372 172.573 506.003 212.027 503.034Z" fill="url(#paint11_linear_1216_4901)"/>
<path d="M105.825 504.291C105.825 504.291 113.133 504.952 114.46 510.909C114.46 510.909 107.491 513.554 105.825 504.291Z" fill="#4BBD99"/>
<path d="M109.854 495.873C109.854 495.873 116.438 499.1 115.536 505.13C115.542 505.13 108.075 505.11 109.854 495.873Z" fill="#4BBD99"/>
<path d="M123.76 504.291C123.76 504.291 116.452 504.952 115.124 510.909C115.124 510.909 122.1 513.554 123.76 504.291Z" fill="#4BBD99"/>
<path d="M105.825 511.901C105.825 511.901 113.133 512.562 114.46 518.52C114.46 518.513 107.491 521.164 105.825 511.901Z" fill="#4BBD99"/>
<path d="M123.76 511.901C123.76 511.901 116.452 512.562 115.124 518.52C115.124 518.513 122.1 521.164 123.76 511.901Z" fill="#4BBD99"/>
<path d="M105.825 520.503C105.825 520.503 113.133 521.164 114.46 527.122C114.46 527.115 107.491 529.76 105.825 520.503Z" fill="#4BBD99"/>
<path d="M123.76 520.503C123.76 520.503 116.452 521.164 115.124 527.122C115.124 527.115 122.1 529.76 123.76 520.503Z" fill="#4BBD99"/>
<path d="M105.825 526.785C105.825 526.785 113.133 527.446 114.46 533.403C114.46 533.403 107.491 536.048 105.825 526.785Z" fill="#4BBD99"/>
<path d="M123.76 526.785C123.76 526.785 116.452 527.446 115.124 533.403C115.124 533.403 122.1 536.048 123.76 526.785Z" fill="#4BBD99"/>
<path d="M114.374 535.383H115.455V503.712H114.374V535.383Z" fill="#4BBD99"/>
<path d="M226.225 600.879C226.225 600.879 229.603 601.183 230.22 603.94C230.214 603.94 226.988 605.164 226.225 600.879Z" fill="#4BBD99"/>
<path d="M228.083 596.985C228.083 596.985 231.13 598.479 230.712 601.269C230.712 601.269 227.26 601.256 228.083 596.985Z" fill="#4BBD99"/>
<path d="M234.515 600.879C234.515 600.879 231.136 601.183 230.519 603.94C230.526 603.94 233.745 605.164 234.515 600.879Z" fill="#4BBD99"/>
<path d="M226.225 604.397C226.225 604.397 229.603 604.701 230.22 607.458C230.214 607.458 226.988 608.681 226.225 604.397Z" fill="#4BBD99"/>
<path d="M234.515 604.397C234.515 604.397 231.136 604.701 230.519 607.458C230.526 607.458 233.745 608.681 234.515 604.397Z" fill="#4BBD99"/>
<path d="M226.225 608.377C226.225 608.377 229.603 608.681 230.22 611.438C230.214 611.438 226.988 612.662 226.225 608.377Z" fill="#4BBD99"/>
<path d="M234.515 608.377C234.515 608.377 231.136 608.681 230.519 611.438C230.526 611.438 233.745 612.662 234.515 608.377Z" fill="#4BBD99"/>
<path d="M226.225 611.286C226.225 611.286 229.603 611.591 230.22 614.348C230.214 614.341 226.988 615.564 226.225 611.286Z" fill="#4BBD99"/>
<path d="M234.515 611.286C234.515 611.286 231.136 611.591 230.519 614.348C230.526 614.341 233.745 615.564 234.515 611.286Z" fill="#4BBD99"/>
<path d="M230.182 615.259H230.68V600.613H230.182V615.259Z" fill="#4BBD99"/>
<path d="M299.072 594.26C299.072 594.26 306.38 594.922 307.708 600.879C307.708 600.872 300.738 603.524 299.072 594.26Z" fill="#4BBD99"/>
<path d="M303.102 585.837C303.102 585.837 309.686 589.063 308.783 595.093C308.783 595.093 301.323 595.08 303.102 585.837Z" fill="#4BBD99"/>
<path d="M317.007 594.26C317.007 594.26 309.699 594.922 308.372 600.879C308.372 600.872 315.348 603.524 317.007 594.26Z" fill="#4BBD99"/>
<path d="M299.072 601.864C299.072 601.864 306.38 602.525 307.708 608.483C307.708 608.483 300.738 611.128 299.072 601.864Z" fill="#4BBD99"/>
<path d="M317.007 601.864C317.007 601.864 309.699 602.525 308.372 608.483C308.372 608.483 315.348 611.128 317.007 601.864Z" fill="#4BBD99"/>
<path d="M299.072 610.466C299.072 610.466 306.38 611.128 307.708 617.085C307.708 617.085 300.738 619.73 299.072 610.466Z" fill="#4BBD99"/>
<path d="M317.007 610.466C317.007 610.466 309.699 611.128 308.372 617.085C308.372 617.085 315.348 619.73 317.007 610.466Z" fill="#4BBD99"/>
<path d="M299.072 616.754C299.072 616.754 306.38 617.416 307.708 623.373C307.708 623.367 300.738 626.011 299.072 616.754Z" fill="#4BBD99"/>
<path d="M317.007 616.754C317.007 616.754 309.699 617.416 308.372 623.373C308.372 623.367 315.348 626.011 317.007 616.754Z" fill="#4BBD99"/>
<path d="M307.62 625.354H308.702V593.682H307.62V625.354Z" fill="#4BBD99"/>
<path d="M113.737 583.47H112.588L127.822 532.319H128.977L113.737 583.47Z" fill="#007180"/>
<path d="M125.007 583.47H123.859L139.092 532.319H140.247L125.007 583.47Z" fill="#007180"/>
<path d="M139.424 534.871H127.258L127.523 533.979H139.69L139.424 534.871Z" fill="#007180"/>
<path d="M137.639 540.848H125.479L125.744 539.956H137.904L137.639 540.848Z" fill="#007180"/>
<path d="M135.86 546.826H123.693L123.959 545.933H136.125L135.86 546.826Z" fill="#007180"/>
<path d="M134.081 552.803H121.914L122.18 551.91H134.347L134.081 552.803Z" fill="#007180"/>
<path d="M132.302 558.78H120.135L120.401 557.888H132.568L132.302 558.78Z" fill="#007180"/>
<path d="M130.517 564.758H118.357L118.622 563.865H130.782L130.517 564.758Z" fill="#007180"/>
<path d="M128.738 570.735H116.571L116.843 569.842H129.003L128.738 570.735Z" fill="#007180"/>
<path d="M126.959 576.712H114.792L115.058 575.813H127.224L126.959 576.712Z" fill="#007180"/>
<path d="M91.0361 550.178C91.0361 550.178 92.1911 548.32 92.3836 548.274C92.5761 548.227 92.6889 548.307 92.5893 548.485C92.4898 548.664 91.534 550.317 91.534 550.317C91.534 550.317 93.3128 548.393 93.4589 548.32C93.5452 548.28 93.7642 548.426 93.7177 548.525C93.6713 548.624 92.0384 550.647 92.0384 550.647C92.0384 550.647 93.7045 548.856 93.8505 548.829C93.9766 548.809 94.1492 548.988 94.0363 549.133C93.9235 549.279 92.4831 551.038 92.4831 551.038C92.4831 551.038 93.7907 549.821 93.9368 549.874C94.0231 549.907 94.2222 550.026 93.8704 550.33C93.5186 550.634 92.7885 551.441 92.7885 551.441L91.0361 550.178Z" fill="#EFA986"/>
<path d="M196.508 487.291C196.508 487.291 197.192 487.595 197.51 487.456C197.835 487.317 198.333 487.291 198.493 487.291C198.705 487.291 199.362 487.053 199.349 487.311C199.336 487.569 198.28 487.747 198.061 487.827C197.842 487.906 198.712 488.382 198.791 488.594C198.871 488.805 197.895 490.187 197.344 489.797C196.793 489.4 196.495 488.613 196.382 488.567C196.269 488.514 195.97 488.296 195.97 488.296L196.508 487.291Z" fill="#EFA986"/>
<path d="M198.692 488.475C198.692 488.475 200.291 489.797 200.318 489.976C200.344 490.154 200.258 490.24 200.106 490.121C199.953 490.002 198.519 488.891 198.519 488.891C198.519 488.891 200.125 490.776 200.179 490.914C200.212 490.994 200.059 491.166 199.966 491.113C199.88 491.06 198.174 489.281 198.174 489.281C198.174 489.281 199.667 491.047 199.674 491.179C199.681 491.298 199.501 491.417 199.382 491.298C199.263 491.172 197.776 489.618 197.776 489.618C197.776 489.618 198.778 490.974 198.712 491.093C198.672 491.166 198.546 491.318 198.3 490.961C198.054 490.604 197.377 489.823 197.377 489.823L198.692 488.475Z" fill="#EFA986"/>
<path d="M253.26 601.752C253.26 601.752 253.114 602.929 252.921 603.451C252.729 603.973 251.686 605.17 252.125 606.327C252.602 607.577 254.687 606.374 255.543 605.99C256.393 605.607 256.2 604.919 256.293 604.073C256.386 603.226 256.797 603.2 256.645 602.605C256.492 602.01 255.563 600.866 255.563 600.866L253.26 601.752Z" fill="#007180"/>
<path d="M255.158 600.244C255.158 600.244 255.689 600.991 255.676 601.011C255.662 601.031 253.386 602.413 253.226 601.963C253.1 601.606 253.047 601.091 253.047 601.091L255.158 600.244Z" fill="#EFA986"/>
<path d="M262.871 602.585C262.871 602.585 263.568 603.193 264.185 604.119C264.809 605.051 266.462 605.097 266.535 606.367C266.608 607.636 264.285 607.676 263.07 607.26C261.855 606.843 261.669 605.607 260.933 605.296C260.196 604.985 259.818 604.734 259.871 604.126C259.93 603.517 260.335 602.539 260.335 602.539C260.335 602.539 260.793 602.684 261.059 602.711C261.324 602.75 262.234 602.763 262.871 602.585Z" fill="#007180"/>
<path d="M254.521 568.163C254.521 568.163 254.985 570.927 255.364 572.751C255.516 573.492 255.656 574.08 255.742 574.266C255.848 574.497 256.724 575.436 257.8 576.534C259.678 578.464 262.167 580.891 262.167 580.891L263.136 579.053C263.136 579.053 260.926 576.474 259.433 574.755C258.742 573.961 258.198 573.347 258.098 573.261C257.786 572.983 257.421 570.232 256.91 567.971C256.399 565.71 255.377 564.46 255.377 564.46L254.521 568.163Z" fill="#97D9EB"/>
<path d="M257.8 576.534C259.678 578.464 262.167 580.891 262.167 580.891L263.136 579.053C263.136 579.053 260.926 576.474 259.433 574.755C258.975 574.98 258.132 575.515 257.8 576.534Z" fill="#EFA986"/>
<path d="M262.758 601.739L262.864 602.585C262.864 602.585 261.656 603.008 260.329 602.545L260.302 601.791L262.758 601.739Z" fill="#EFA986"/>
<path d="M245.62 580.514C245.553 580.759 258.404 580.514 258.404 580.514C258.404 580.514 254.846 577.935 254.62 577.248C254.388 576.56 255.523 572.427 255.676 571.079C255.795 570.001 256.094 565.187 255.377 564.453C254.634 563.686 251.952 562.88 251.952 562.88L248.042 563.025C248.042 563.025 247.399 563.157 246.934 563.376C246.469 563.587 243.834 564.526 243.409 565.835C242.978 567.144 246.038 571.363 246.038 571.363C246.038 571.363 246.044 571.555 246.051 571.865C246.064 572.282 246.078 572.91 246.098 573.591C246.117 574.477 246.137 575.449 246.137 576.163C246.144 577.836 245.693 580.269 245.62 580.514Z" fill="#CDEBF2"/>
<path d="M245.62 580.521C245.62 580.521 243.874 583.079 243.847 584.825C243.821 586.571 246.947 592.422 247.425 593.262C248.846 595.775 252.749 601.203 252.749 601.203C252.749 601.203 253.419 601.183 255.523 600.376C255.523 600.376 252.928 593.209 252.596 592.462C251.202 589.308 250.419 587.066 250.89 586.524C251.361 585.982 252.636 585.44 253.007 585.123C253.379 584.805 259.831 586.339 260.508 586.511C262.26 586.961 261.464 589.996 261.072 591.358C260.422 593.632 259.857 601.851 259.857 601.851C259.857 601.851 261.105 602.38 263.196 601.93C263.196 601.93 267.298 587.086 267.431 585.612C267.564 584.137 267.63 581.704 257.521 579.853L245.62 580.521Z" fill="#007180"/>
<path d="M250.883 554.423C250.883 554.423 254.275 553.663 253.499 557.914C252.722 562.166 251.906 562.503 249.861 561.623C247.817 560.744 247.996 558.02 247.896 556.684C247.797 555.349 249.801 554.469 250.883 554.423Z" fill="#EFA986"/>
<path d="M251.779 563.977C251.779 563.977 250.279 565.564 247.903 564.123C247.903 564.123 248.434 560.685 248.155 559.012C247.876 557.339 251.255 561.604 251.255 561.604C251.209 561.63 251.182 561.789 251.175 562.014C251.169 562.205 251.182 562.45 251.209 562.695C251.275 563.25 251.454 563.838 251.779 563.977Z" fill="#EFA986"/>
<path d="M248.062 558.866C248.062 558.866 248.149 557.524 248.64 557.484C249.131 557.445 249.204 557.98 249.204 557.98L249.702 558.073C249.702 558.073 249.542 556.896 250.034 556.691C250.525 556.486 253.213 557.339 253.605 556.995C253.996 556.651 253.81 554.271 253.1 553.94C252.39 553.616 250.419 552.882 248.978 553.854C248.978 553.854 247.857 553.729 247.691 554.628C247.531 555.534 247.757 558.192 248.062 558.866Z" fill="#3B4048"/>
<path d="M251.209 562.695C248.759 561.941 248.573 560.473 248.573 560.453C249.377 561.835 251.175 562.014 251.175 562.014C251.169 562.205 251.175 562.443 251.209 562.695Z" fill="#A77961"/>
<path d="M246.901 563.395C246.901 563.395 248.693 566.953 251.594 566.721C254.494 566.49 252.085 562.919 251.959 562.886C251.813 562.847 248.985 562.146 246.901 563.395Z" fill="#EFA986"/>
<path d="M259.877 580.335C259.877 580.335 250.996 581.426 245.62 580.514L255.895 579.238C255.901 579.238 255.961 579.502 259.877 580.335Z" fill="#CDEBF2"/>
<path d="M253.24 578.835L253.903 579.172C253.903 579.172 253.751 580.216 253.392 580.534L252.649 580.342C252.642 580.342 252.802 579.198 253.24 578.835Z" fill="#EFA986"/>
<path d="M242.965 576.692C243.097 576.844 244.843 577.545 246.814 578.299C249.509 579.33 252.549 580.309 252.549 580.309L253.24 578.835C253.24 578.835 250.06 577.109 247.91 575.905C246.894 575.337 246.111 574.881 245.998 574.775C245.653 574.444 245.56 573.922 245.819 573.003C246.071 572.084 246.662 567.872 246.722 567.376C246.788 566.887 246.556 565.571 245.321 565.505C244.086 565.439 243.456 565.789 243.456 565.789C243.456 565.789 243.144 565.915 242.918 568.903C242.686 571.885 242.653 576.329 242.965 576.692Z" fill="#97D9EB"/>
<path d="M246.064 571.865C246.078 572.282 246.091 572.91 246.111 573.591C247.319 570.649 246.622 568.302 246.609 568.262C246.735 569.062 246.071 571.826 246.064 571.865Z" fill="#B6D6DC"/>
<path d="M255.364 572.751C255.516 573.492 255.656 574.08 255.742 574.266C256.154 572.282 255.782 569.743 255.782 569.743C255.729 570.953 255.364 572.751 255.364 572.751Z" fill="#008D79"/>
<path d="M246.814 578.299C249.509 579.33 252.642 580.342 252.642 580.342L253.233 578.835C253.233 578.835 250.054 577.109 247.903 575.905C247.91 575.905 247.126 576.282 246.814 578.299Z" fill="#EFA986"/>
<path d="M253.432 580.435L266.05 580.249L259.678 583.47L253.432 580.435Z" fill="#B6D6DC"/>
<path d="M259.678 583.47L253.432 581.056V580.435L260.169 582.855L259.678 583.47Z" fill="#CDEBF2"/>
<path d="M253.757 579.192C253.757 579.192 254.547 579.073 255.092 578.94C255.516 578.841 256.558 578.98 256.831 579.244C257.096 579.516 257.946 581.393 258.105 581.506C258.264 581.618 258.025 581.883 257.74 581.75C257.74 581.75 257.481 582.57 256.844 582.266C256.207 581.962 255.769 581.288 255.437 581.169C255.105 581.05 253.153 580.454 253.153 580.454C253.153 580.454 253.253 578.993 253.757 579.192Z" fill="#EFA986"/>
<path d="M256.638 579.125C256.638 579.125 257.143 579.37 257.275 579.476C257.408 579.582 257.946 579.985 258.072 580.078C258.205 580.17 257.879 580.441 256.917 580.025C255.961 579.615 256.638 579.125 256.638 579.125Z" fill="#EFA986"/>
<path d="M259.678 583.47L263.435 573.261L275.535 573.459L271.958 582.868L259.678 583.47Z" fill="#CDEBF2"/>
<path d="M267.305 577.777C266.933 578.511 267.046 579.311 267.557 579.568C268.061 579.82 268.772 579.43 269.143 578.696C269.515 577.962 269.402 577.162 268.891 576.904C268.387 576.653 267.677 577.043 267.305 577.777Z" fill="#4BBD99"/>
<path d="M249.197 557.412C249.151 557.035 248.407 556.896 248.348 557.464C248.288 558.026 248.686 559.012 248.972 558.919C249.25 558.82 249.257 557.927 249.197 557.412Z" fill="#EFA986"/>
<path opacity="0.21" d="M187.74 516.873L185.801 512.873L190.813 504.905L212.027 503.034L187.74 516.873Z" fill="url(#paint12_linear_1216_4901)"/>
<path d="M183.923 464.361C183.923 464.361 181.792 466.503 182.516 469.253C183.239 472.011 184.408 472.024 185.695 470.84C186.983 469.657 187.74 468.407 187.912 467.025C188.078 465.637 185.868 462.45 183.923 464.361Z" fill="#EFA986"/>
<path d="M183.505 473.551C183.505 473.551 183.823 472.831 184.042 472.017C184.082 471.872 184.115 471.726 184.149 471.581C184.255 471.072 184.301 470.569 184.182 470.225C183.843 469.227 186.313 469.915 186.313 469.915C186.313 469.915 185.835 472.559 186.313 473.459C186.797 474.351 183.505 473.551 183.505 473.551Z" fill="#EFA986"/>
<path d="M184.62 465.901C184.62 465.901 185.642 467.746 186.273 468.414C186.903 469.075 186.83 469.604 186.83 469.604C186.83 469.604 189.299 466.569 187.541 464.737C185.782 462.906 183.505 463.646 182.841 465.247C182.177 466.847 182.423 468.804 182.423 468.804C182.423 468.804 182.436 466.919 184.62 465.901Z" fill="#3B4048"/>
<path d="M185.29 463.964C185.29 463.964 185.045 462.608 187.175 462.073C189.306 461.537 190.262 463.977 189.996 465.471C189.731 466.959 187.912 470.741 188.901 471.237C189.89 471.726 190.275 470.668 190.275 470.668C190.275 470.668 189.97 472.526 188.596 472.097C187.222 471.667 187.408 468.645 187.614 467.442C187.819 466.232 185.29 463.964 185.29 463.964Z" fill="#3B4048"/>
<path d="M183.18 472.936C183.18 472.936 183.372 472.368 183.352 472.235C183.352 472.235 186.04 472.07 186.731 472.169C186.731 472.169 186.784 472.93 186.777 473.102C186.777 473.267 183.664 473.789 183.18 472.936Z" fill="#FBAD53"/>
<path d="M185.974 470.576C185.967 470.596 185.43 471.832 184.042 472.024C184.082 471.878 184.115 471.733 184.149 471.587C184.149 471.587 184.912 471.74 185.974 470.576Z" fill="#A77961"/>
<path d="M185.489 515.941C185.489 515.941 185.43 518.103 185.735 518.235C186.047 518.368 187.222 517.614 187.74 516.867C188.257 516.119 187.089 514.387 186.897 513.435C186.817 513.032 185.908 512.318 185.456 512.523C185.012 512.727 184.686 513.256 184.686 513.256C184.686 513.256 185.821 514.03 185.489 515.941Z" fill="#4BBD99"/>
<path d="M184.693 513.256C184.693 513.256 185.078 513.997 185.277 514.566C185.476 515.141 185.509 516.728 185.635 516.834C185.762 516.946 186.744 516.45 186.877 515.855C187.009 515.26 186.611 514.076 186.226 513.455C185.848 512.833 185.463 512.516 185.463 512.516C185.463 512.516 184.786 512.655 184.693 513.256Z" fill="#DE9674"/>
<path d="M186.897 513.435L187.952 514.976L187.753 515.114L186.937 513.924L186.897 513.435Z" fill="#4BBD99"/>
<path d="M180.89 499.351C180.89 499.351 181.494 502.538 181.494 503.299C181.494 504.059 181.699 505.309 182.191 506.234C182.675 507.16 184.812 513.468 184.998 514.202C185.184 514.936 185.343 515.63 185.343 515.63C185.343 515.63 186.412 515.147 186.412 514.453C186.412 513.759 185.483 508.033 185.324 506.902C185.164 505.772 183.817 499.973 183.817 499.973L180.89 499.351Z" fill="#DE9674"/>
<path d="M184.301 499.14C184.301 499.14 184.096 501.798 184.116 502.485C184.135 503.18 184.461 504.747 184.461 505.163C184.461 505.58 184.461 514.189 184.116 515.233C183.77 516.272 185.085 515.557 185.085 515.557C185.085 515.557 187.381 509.891 187.381 507.53C187.381 505.17 187.102 503.986 187.268 502.485C187.428 500.985 188.45 499.001 188.45 499.001L184.301 499.14Z" fill="#EFA986"/>
<path d="M187.773 486.359C187.773 486.359 189.306 488.613 189.631 490.617C189.957 492.627 189.346 495.616 189.094 496.713C188.875 497.672 188.543 500.661 188.516 500.985C188.516 500.985 183.697 502.234 180.544 501.236C180.544 501.236 180.053 496.303 179.867 494.478C179.682 492.653 180.969 486.491 180.969 486.491L187.773 486.359Z" fill="#4BBD99"/>
<path d="M196.939 487.41L196.076 488.382C196.076 488.382 190.906 484.203 190.673 483.648C190.441 483.092 188.689 479.972 188.622 479.654C188.622 479.654 188.284 480.52 188.005 481.36C187.892 481.71 187.74 482.345 187.673 482.623C187.441 483.568 187.414 485.089 187.773 486.365C187.773 486.365 183.584 487.919 180.976 486.504C180.976 486.504 181.255 484.243 180.837 482.782C180.418 481.32 178.241 476.222 178.241 476.222C178.241 476.222 179.403 474.08 180.604 473.67C181.812 473.254 183.186 472.943 183.186 472.943H186.04C186.04 472.943 187.919 473.432 188.344 473.564C189.094 473.802 189.797 474.755 189.937 475.608C190.076 476.461 192.047 482.299 192.28 482.458C192.505 482.61 196.939 487.41 196.939 487.41Z" fill="#FFC656"/>
<path d="M180.007 484.633C180.007 484.633 181.859 484.706 182.151 484.633C182.436 484.56 184.361 483.727 184.481 482.907C184.593 482.087 180.007 483.641 180.007 483.641V484.633V484.633Z" fill="#EFA986"/>
<path d="M183.027 517.852C183.027 517.852 181.593 519.518 181.752 519.816C181.912 520.113 183.319 520.265 184.202 520.007C185.085 519.749 185.277 517.647 185.735 516.767C185.928 516.404 185.669 515.253 185.184 515.134C184.7 515.015 184.109 515.227 184.109 515.227C184.109 515.227 184.514 516.562 183.027 517.852Z" fill="#4BBD99"/>
<path d="M184.116 515.233C184.116 515.233 183.95 516.06 183.737 516.635C183.525 517.21 182.542 518.487 182.569 518.652C182.595 518.817 183.691 519.055 184.169 518.672C184.653 518.288 185.098 517.098 185.197 516.371C185.297 515.637 185.244 515.167 185.244 515.167C185.244 515.167 184.58 514.824 184.116 515.233Z" fill="#EFA986"/>
<path d="M185.742 516.774L185.589 518.658L185.343 518.639L185.463 517.184L185.742 516.774Z" fill="#4BBD99"/>
<path d="M185.762 482.068L178.235 481.188L181.633 483.945L185.762 482.068Z" fill="#B6D6DC"/>
<path d="M180.232 483.575C180.232 483.575 180.153 484.527 180.232 484.732C180.232 484.732 175.593 484.269 175.161 483.621C174.73 482.973 174.743 482.187 174.743 482.187L180.232 483.575Z" fill="#FFC656"/>
<path d="M181.633 483.945L185.762 482.544V482.068L181.494 483.43L181.633 483.945Z" fill="#CDEBF2"/>
<path d="M181.633 483.945L179.443 475.813L171.092 474.94L173.382 482.418L181.633 483.945Z" fill="#007180"/>
<path d="M188.622 479.648C188.622 479.648 188.284 480.514 188.005 481.353C187.72 478.993 188.105 477.109 188.105 477.109C188.138 478.378 188.622 479.648 188.622 479.648Z" fill="#FBAD53"/>
<path d="M106.86 595.212C106.15 600.046 94.6536 602.38 81.166 600.423C67.6783 598.466 57.3303 592.958 58.0339 588.124C58.7441 583.291 70.2404 580.957 83.7281 582.914C97.2157 584.871 107.57 590.379 106.86 595.212Z" fill="url(#paint13_linear_1216_4901)"/>
<path d="M90.1533 552.644C90.1533 552.644 90.3524 551.877 90.14 551.547C89.921 551.216 89.7949 550.681 89.7683 550.515C89.7285 550.29 89.3369 549.609 89.6223 549.59C89.9077 549.576 90.3192 550.694 90.4453 550.912C90.5781 551.137 90.9365 550.158 91.1556 550.046C91.3746 549.933 93.107 550.833 92.7752 551.467C92.4433 552.102 91.6268 552.505 91.5937 552.631C91.5605 552.757 91.3746 553.107 91.3746 553.107L90.1533 552.644Z" fill="#EFA986"/>
<path d="M63.1979 551.752H108.805C110.697 551.752 112.23 550.224 112.23 548.34V543.844C112.23 541.959 110.697 540.432 108.805 540.432H63.1979C61.3062 540.432 59.7729 541.959 59.7729 543.844V548.34C59.7663 550.224 61.3062 551.752 63.1979 551.752Z" fill="url(#paint14_linear_1216_4901)"/>
<path d="M109.422 543.903H100.926V544.769H109.422V543.903Z" fill="#CDEBF2"/>
<path d="M99.2734 543.903H93.2465V544.769H99.2734V543.903Z" fill="#CDEBF2"/>
<path d="M99.2734 547.163H93.6447V548.029H99.2734V547.163Z" fill="#CDEBF2"/>
<path d="M69.0656 543.903H63.0386V544.769H69.0656V543.903Z" fill="#CDEBF2"/>
<path d="M91.6202 543.903H83.9405V544.769H91.6202V543.903Z" fill="#CDEBF2"/>
<path d="M78.2521 543.903H70.5723V544.769H78.2521V543.903Z" fill="#CDEBF2"/>
<path d="M82.52 543.903H79.7057V544.769H82.52V543.903Z" fill="#CDEBF2"/>
<path d="M109.422 547.163H105.022V548.029H109.422V547.163Z" fill="#CDEBF2"/>
<path d="M103.94 547.163H102.519V548.029H103.94V547.163Z" fill="#CDEBF2"/>
<path d="M74.7806 547.163H63.0386V548.029H74.7806V547.163Z" fill="#CDEBF2"/>
<path d="M101.477 547.163H100.03V548.029H101.477V547.163Z" fill="#CDEBF2"/>
<path d="M79.7057 547.163H75.8625V548.029H79.7057V547.163Z" fill="#CDEBF2"/>
<path d="M88.8922 547.163H80.7213V548.029H88.8922V547.163Z" fill="#CDEBF2"/>
<path d="M92.8681 547.163H90.0538V548.029H92.8681V547.163Z" fill="#CDEBF2"/>
<path d="M91.5074 591.12C91.5074 591.12 92.6159 592.23 93.5717 592.349C94.5275 592.469 95.6293 592.826 95.7621 593.54C95.8948 594.254 92.9345 595.014 91.7729 594.459C90.0338 593.626 89.5294 593.956 89.2705 593.44C89.005 592.931 89.0581 591.159 89.0116 590.987C88.9585 590.782 91.5074 591.12 91.5074 591.12Z" fill="#4BBD99"/>
<path d="M71.9198 587.979C71.9198 587.979 72.2384 589.5 72.9486 590.082C73.6522 590.663 74.3624 591.53 74.0969 592.217C73.8314 592.905 71.3091 592.819 70.413 591.007C69.8422 589.863 69.1851 589.665 69.2315 589.083C69.2846 588.508 70.1608 587.271 70.2205 587.106C70.2803 586.895 71.9198 587.979 71.9198 587.979Z" fill="#4BBD99"/>
<path d="M84.0135 566.252C84.0135 566.252 87.8368 574.14 88.6997 576.137C89.4962 577.988 90.3193 581.314 90.4321 582.617C90.5715 584.256 92.1446 590.908 92.2442 591.391C92.3437 591.867 88.9121 591.582 88.9121 591.582C88.9121 591.582 85.9252 580.243 85.1353 578.636C84.6043 577.565 80.6416 570.417 80.2898 570.86C79.938 571.303 77.8074 576.639 77.5485 577.922C77.2896 579.205 72.4043 588.726 72.4043 588.726C72.4043 588.726 70.121 588.561 69.6763 587.695C69.6763 587.695 73.3203 578.048 73.7252 576.289C73.931 575.396 74.6877 569.763 75.6369 565.452C76.1214 563.224 84.0135 566.252 84.0135 566.252Z" fill="#007180"/>
<path d="M74.3292 554.244C74.3292 554.244 75.6435 558.185 75.6169 559.117C75.5904 560.056 76.3471 554.535 74.3292 554.244Z" fill="#008D79"/>
<path d="M83.6617 555.699C83.6617 555.699 83.821 556.241 84.133 556.896C84.2459 557.134 84.3786 557.392 84.5313 557.636C84.5578 557.683 84.5844 557.722 84.6109 557.769C84.7171 557.934 84.8366 558.099 84.9561 558.245C85.3477 558.714 85.819 559.078 86.3699 559.117C87.4916 559.203 91.5273 553.054 91.5273 553.054L89.6024 552.181C89.6024 552.181 87.0469 555.851 86.6553 555.653C86.2571 555.448 85.8455 553.96 85.8455 553.96C85.3742 553.702 84.6574 554.416 84.1795 555.005C84.1463 555.044 84.1197 555.084 84.0866 555.117C83.8343 555.441 83.6617 555.699 83.6617 555.699Z" fill="#008D79"/>
<path d="M75.3979 566.073C77.5817 568.024 84.5578 567.376 84.5578 567.376C84.4582 567.138 83.748 559.891 83.9936 558.251C84.2392 556.611 84.0998 555.223 84.3188 555.157C84.5379 555.091 86.038 554.568 86.038 554.568C86.038 554.568 85.2415 552.043 84.903 551.494C84.5711 550.945 82.1815 550.145 82.1815 550.145C82.1815 550.145 80.323 549.484 78.3583 549.715C75.0726 550.105 74.6744 551.064 74.6744 551.064L75.4377 555.93C75.4377 555.93 75.4377 555.95 75.4377 555.983C75.4443 556.089 75.451 556.367 75.4643 556.744C75.5174 558.311 75.6368 561.656 75.6567 562.457C75.6899 563.746 75.3979 566.073 75.3979 566.073Z" fill="#4BBD99"/>
<path d="M77.8206 549.808C77.9534 550.052 78.0994 550.271 78.2454 550.456C79.2743 551.772 80.4624 551.725 80.4624 551.725C81.1925 551.659 81.5775 551.19 81.7833 550.773C81.9625 550.409 81.9957 550.079 81.9957 550.079L81.5642 549.92C81.531 549.808 81.5111 549.656 81.4979 549.484C81.4912 549.391 81.4912 549.292 81.4912 549.193C81.4912 549.107 81.4912 549.021 81.4912 548.935C81.4912 548.902 81.4912 548.869 81.4912 548.836C81.5045 548.472 81.531 548.161 81.531 548.161C81.531 548.161 78.418 546.482 78.6702 547.665C78.7897 548.208 78.7698 548.631 78.6901 548.942C78.5972 549.312 78.418 549.53 78.2853 549.596C77.9932 549.742 77.8206 549.808 77.8206 549.808Z" fill="#EFAA87"/>
<path d="M86.7681 552.201C86.7681 552.201 86.9407 552.049 86.9606 551.864C86.9938 551.547 86.6752 551.143 87.0403 550.852C87.4053 550.568 88.7129 551.441 88.8457 551.712C88.9785 551.983 88.62 552.512 87.7837 553.021C86.9407 553.537 86.7681 552.201 86.7681 552.201Z" fill="#EFA986"/>
<path d="M86.9341 550.971C86.9341 550.971 87.2394 550.363 87.6642 549.728C88.0359 549.173 88.5669 548.578 88.713 548.684C88.9187 548.823 88.4475 549.239 88.1156 549.814C87.8102 550.343 87.9629 550.29 87.9629 550.29C87.9629 550.29 87.9165 550.304 88.3678 549.788C88.8524 549.232 89.4497 548.651 89.5891 548.77C89.6754 548.849 89.6953 548.849 89.5493 549.074C89.6621 548.961 89.7086 548.975 89.7683 549.014C90.0604 549.232 89.4763 550.152 89.2506 550.522C89.4298 550.244 89.5891 550.052 89.6821 550.297C89.7883 550.568 88.9055 551.838 88.64 552.32C88.3545 552.849 86.9341 550.971 86.9341 550.971Z" fill="#EFA986"/>
<path d="M74.4023 554.813C72.9884 553.101 74.7341 550.978 74.7341 550.978C75.7696 550.099 78.0264 553.782 78.3118 554.139C78.5972 554.496 80.7611 556.426 81.3651 557.074C81.6704 557.405 82.9648 555.99 83.5622 555.428C83.9206 555.091 86.6951 551.844 86.6951 551.844C86.6951 551.844 88.6068 553.22 88.4475 553.107C88.2882 552.988 82.7856 560.169 81.7634 560.222C81.7634 560.222 77.814 558.946 74.4023 554.813Z" fill="#00B299"/>
<path d="M84.5312 557.636C84.5578 557.683 84.5844 557.722 84.6109 557.769C84.7171 557.934 84.8366 558.099 84.9561 558.245C85.2216 557.927 86.2238 555.673 86.2438 555.633L84.5312 557.636Z" fill="#008D79"/>
<path d="M75.9554 556.479C75.9554 556.479 77.7277 558.06 78.6835 558.641C79.646 559.223 81.2456 560.023 81.4248 560.089C81.4315 560.096 77.1834 559.27 75.9554 556.479Z" fill="#008D79"/>
<path d="M83.1838 543.83C83.1838 543.83 83.8608 545.08 83.5223 545.272C83.2435 545.431 83.8476 546.66 83.9272 546.859C84.0069 547.057 83.4228 547.203 83.3033 547.335C83.1772 547.467 82.8121 549.047 82.3342 549.1C81.8563 549.147 79.699 548.399 79.1149 547.791C78.5308 547.183 78.0463 544.439 78.4379 543.282C78.8362 542.131 81.9957 541.649 83.1838 543.83Z" fill="#EFA986"/>
<path d="M83.3232 544.102C83.3232 544.102 84.0135 542.753 82.759 541.754C81.5045 540.756 79.1946 542.508 78.9291 542.574C78.6702 542.64 77.19 542.739 77.9334 545.331C78.5773 547.553 78.6636 547.646 78.6636 547.646C78.6636 547.646 79.1415 546.356 79.4136 546.165C79.8384 545.86 80.7677 545.933 80.7677 545.933C80.7677 545.933 80.323 544.763 81.0199 544.597C81.7102 544.426 82.6196 543.844 83.3232 544.102Z" fill="#262E3B"/>
<path d="M80.0309 545.259C79.9712 545.1 79.772 544.406 79.1813 544.816C78.5839 545.219 79.553 546.522 79.6526 546.535C79.7588 546.555 80.5486 546.608 80.0309 545.259Z" fill="#EFA986"/>
<path d="M79.1813 547.857C79.1813 547.857 79.6858 548.856 81.4912 549.49C81.4846 549.398 81.4846 549.299 81.4846 549.199C81.4846 549.113 81.4846 549.028 81.4846 548.942C81.4912 548.942 80.0973 548.558 79.1813 547.857Z" fill="#A77961"/>
<defs>
<linearGradient id="paint0_linear_1216_4901" x1="209.72" y1="616.923" x2="296.021" y2="616.923" gradientUnits="userSpaceOnUse">
<stop stop-color="#F3F5FB"/>
<stop offset="1" stop-color="#DCE8F6"/>
</linearGradient>
<linearGradient id="paint1_linear_1216_4901" x1="197.67" y1="569.371" x2="273.142" y2="569.371" gradientUnits="userSpaceOnUse">
<stop stop-color="#F3F5FB"/>
<stop offset="1" stop-color="#DCE8F6"/>
</linearGradient>
<linearGradient id="paint2_linear_1216_4901" x1="131.668" y1="565.055" x2="168.561" y2="564.14" gradientUnits="userSpaceOnUse">
<stop stop-color="#F3F5FB"/>
<stop offset="1" stop-color="#DCE8F6"/>
</linearGradient>
<linearGradient id="paint3_linear_1216_4901" x1="151.156" y1="549.766" x2="242.705" y2="524.251" gradientUnits="userSpaceOnUse">
<stop stop-color="#F3F5FB"/>
<stop offset="1" stop-color="#DCE8F6"/>
</linearGradient>
<linearGradient id="paint4_linear_1216_4901" x1="289.72" y1="593.378" x2="209.359" y2="600.441" gradientUnits="userSpaceOnUse">
<stop offset="1e-06" stop-color="#A0D39F"/>
<stop offset="1" stop-color="#7ACCC7"/>
</linearGradient>
<linearGradient id="paint5_linear_1216_4901" x1="158.512" y1="610.789" x2="125.189" y2="604.842" gradientUnits="userSpaceOnUse">
<stop offset="1e-06" stop-color="#A0D39F"/>
<stop offset="1" stop-color="#7ACCC7"/>
</linearGradient>
<linearGradient id="paint6_linear_1216_4901" x1="209.72" y1="613.174" x2="177.672" y2="613.174" gradientUnits="userSpaceOnUse">
<stop offset="1e-06" stop-color="#A0D39F"/>
<stop offset="1" stop-color="#7ACCC7"/>
</linearGradient>
<linearGradient id="paint7_linear_1216_4901" x1="154.831" y1="640.368" x2="247.652" y2="627.729" gradientUnits="userSpaceOnUse">
<stop stop-color="#F3F5FB"/>
<stop offset="1" stop-color="#DCE8F6"/>
</linearGradient>
<linearGradient id="paint8_linear_1216_4901" x1="271.596" y1="644.232" x2="208.285" y2="644.232" gradientUnits="userSpaceOnUse">
<stop stop-color="#F3F5FB"/>
<stop offset="1" stop-color="#DCE8F6"/>
</linearGradient>
<linearGradient id="paint9_linear_1216_4901" x1="247.384" y1="520.662" x2="170.374" y2="536.272" gradientUnits="userSpaceOnUse">
<stop stop-color="#F3F5FB"/>
<stop offset="1" stop-color="#DCE8F6"/>
</linearGradient>
<linearGradient id="paint10_linear_1216_4901" x1="133.329" y1="531.024" x2="134.799" y2="567.548" gradientUnits="userSpaceOnUse">
<stop stop-color="#F3F5FB"/>
<stop offset="1" stop-color="#DCE8F6"/>
</linearGradient>
<linearGradient id="paint11_linear_1216_4901" x1="126.102" y1="528.726" x2="184.838" y2="516.385" gradientUnits="userSpaceOnUse">
<stop stop-color="#F3F5FB"/>
<stop offset="1" stop-color="#DCE8F6"/>
</linearGradient>
<linearGradient id="paint12_linear_1216_4901" x1="185.805" y1="509.952" x2="212.024" y2="509.952" gradientUnits="userSpaceOnUse">
<stop stop-color="white"/>
<stop offset="1" stop-color="white" stop-opacity="0"/>
</linearGradient>
<linearGradient id="paint13_linear_1216_4901" x1="58.0073" y1="591.667" x2="106.897" y2="591.667" gradientUnits="userSpaceOnUse">
<stop stop-color="#F3F5FB"/>
<stop offset="1" stop-color="#DCE8F6"/>
</linearGradient>
<linearGradient id="paint14_linear_1216_4901" x1="59.7691" y1="546.091" x2="112.226" y2="546.091" gradientUnits="userSpaceOnUse">
<stop stop-color="#337F88"/>
<stop offset="1" stop-color="#229699"/>
</linearGradient>
</defs>
</svg>
